<?xml version="1.0" encoding="UTF-8"?>
<svg version="1.1" xmlns="http://www.w3.org/2000/svg" width="500" height="500">
<path d="M0 0 C165 0 330 0 500 0 C500 165 500 330 500 500 C335 500 170 500 0 500 C0 335 0 170 0 0 Z " fill="#FEA28E" transform="translate(0,0)"/>
<path d="M0 0 C1.71316406 -0.0299707 1.71316406 -0.0299707 3.4609375 -0.06054688 C17.60356142 -0.05251129 29.73693826 4.877701 40.25 14.3125 C51.41425048 26.07059359 56.16496178 42.57706481 56.04736328 58.48510742 C55.52364568 72.69223106 48.96020724 85.78123286 39.3125 96.015625 C23.07543721 110.64786181 4.42998983 115.21568653 -16.96679688 114.56835938 C-20.7937082 114.3604088 -24.57233422 113.91092425 -28.375 113.4375 C-28.045 114.4275 -27.715 115.4175 -27.375 116.4375 C-27.11087573 120.97483474 -27.14345353 125.51831939 -27.125 130.0625 C-27.104375 131.30902344 -27.08375 132.55554688 -27.0625 133.83984375 C-27.02698309 142.24847279 -27.71193212 149.06245991 -32.125 156.3125 C-36.92834945 160.8489967 -41.90051556 161.77217754 -48.26171875 161.73828125 C-50.63188684 161.40093755 -52.30284494 160.61156528 -54.375 159.4375 C-54.375 158.7775 -54.375 158.1175 -54.375 157.4375 C-55.3340625 157.004375 -55.3340625 157.004375 -56.3125 156.5625 C-58.375 155.4375 -58.375 155.4375 -59.375 153.4375 C-59.47182647 151.64529678 -59.50575927 149.84950323 -59.5078125 148.0546875 C-59.50910156 146.96929687 -59.51039063 145.88390625 -59.51171875 144.765625 C-59.50785156 143.62609375 -59.50398437 142.4865625 -59.5 141.3125 C-59.50386719 140.19617188 -59.50773438 139.07984375 -59.51171875 137.9296875 C-59.50084823 128.71148871 -59.50084823 128.71148871 -58.8828125 124.32421875 C-56.45696875 105.75718386 -59.0301274 86.6884355 -60.98583984 68.203125 C-62.46296393 53.91004982 -63.54318872 39.62274296 -63.6875 25.25 C-63.70514404 24.26394775 -63.72278809 23.27789551 -63.7409668 22.26196289 C-63.73436291 15.36450442 -62.94668784 10.30309503 -58.1875 5 C-54.45043033 2.92385018 -51.55927631 2.73870029 -47.375 3.4375 C-43.20789015 5.27878109 -40.5461332 8.22429538 -37.375 11.4375 C-36.48039062 10.89480469 -35.58578125 10.35210937 -34.6640625 9.79296875 C-33.44304198 9.0697489 -32.2216684 8.3471249 -31 7.625 C-30.12408203 7.09036133 -30.12408203 7.09036133 -29.23046875 6.54492188 C-19.79975387 1.01832014 -10.81615673 -0.06669155 0 0 Z " fill="#FEFDFC" transform="translate(231.375,151.5625)"/>
<path d="M0 0 C4.11411457 2.36342752 5.63989353 4.53177343 7 9 C7.28584578 11.99244205 7.28027626 14.96836357 7.265625 17.97265625 C7.26753845 18.85038193 7.2694519 19.7281076 7.27142334 20.63243103 C7.27278319 22.49592372 7.26910074 24.35942595 7.26074219 26.22290039 C7.25023248 29.00104665 7.26054252 31.77851706 7.2734375 34.55664062 C7.28279619 43.68858522 7.02748567 52.77122873 6.234375 61.87109375 C6.14328461 63.07415916 6.14328461 63.07415916 6.050354 64.30152893 C5.36109041 71.20395293 2.83731496 76.32754187 -1.0625 82 C-5.5422766 85.05006066 -9.74852609 84.96251355 -15 84 C-18.40535015 82.35116445 -20.44463735 80.12994201 -22.12890625 76.703125 C-26.26194037 63.87774558 -21.58577073 47.45891795 -19.56445312 34.61669922 C-19.0160455 31.10281057 -18.49768079 27.58557035 -17.984375 24.06640625 C-17.6577104 21.91904816 -17.32965218 19.77190148 -17 17.625 C-16.78778809 16.14688843 -16.78778809 16.14688843 -16.57128906 14.63891602 C-15.68611059 9.11042444 -14.61308544 5.3328798 -11 1 C-7.53472176 -0.73263912 -3.78892972 -0.4719774 0 0 Z " fill="#FEFCFA" transform="translate(325,217)"/>
<path d="M0 0 C4.12593192 2.87855716 7.06537651 6.00862953 8.6875 10.875 C9.6902312 20.41527109 8.06460155 26.37584958 2.1484375 33.80859375 C-4.39361221 41.01725042 -13.83706249 45.35136811 -23.54663086 46.03149414 C-25.80551504 46.07019284 -28.05393029 46.05088632 -30.3125 46 C-31.47458984 45.98646484 -31.47458984 45.98646484 -32.66015625 45.97265625 C-34.54440843 45.94939388 -36.42849832 45.9135364 -38.3125 45.875 C-39.09863467 32.92561504 -36.97161147 18.72371493 -29.3125 7.875 C-21.50476569 -0.01668845 -10.71988894 -3.640717 0 0 Z " fill="#FC9D94" transform="translate(241.3125,187.125)"/>
<path d="M0 0 C2.99935171 2.45401504 3.98034667 3.48725038 4.75 7.25 C4.64650368 13.77026832 3.4053527 16.70291132 -1.25 21.25 C-4.5078967 23.56205572 -7.31255358 23.72249357 -11.25 23.25 C-15.56455798 20.96582225 -18.38452098 18.81005984 -20.25 14.25 C-20.77774616 9.50028456 -20.72536881 7.25778188 -18.6875 2.9375 C-12.99297065 -3.34108365 -7.21346121 -3.88417142 0 0 Z " fill="#FDFBF7" transform="translate(325.25,176.75)"/>
<path d="M0 0 C0.66 0.33 1.32 0.66 2 1 C2 1.99 2 2.98 2 4 C2.66 4.33 3.32 4.66 4 5 C2.7934375 6.11375 2.7934375 6.11375 1.5625 7.25 C-4.58340567 13.84560608 -2.32993601 25.65393389 -2.14941406 34.09619141 C-1.56178258 49.44950426 -0.00417217 64.82154988 1.64453125 80.09375 C3.19169219 94.49558521 4.47478191 109.62825778 2.5234375 124.04296875 C1.86444288 129.02477139 1.64858833 133.9823265 1.4375 139 C1.39431641 139.96550781 1.35113281 140.93101562 1.30664062 141.92578125 C1.20158287 144.28374425 1.09943086 146.64179416 1 149 C0.67 149 0.34 149 0 149 C0.00333092 148.04851326 0.00333092 148.04851326 0.00672913 147.07780457 C0.02913939 140.37601291 0.04405277 133.67423217 0.05493164 126.97241211 C0.0599092 124.48314989 0.06669366 121.99389051 0.07543945 119.50463867 C0.46730015 94.66252123 0.46730015 94.66252123 -2 70 C-2.1241126 68.37182177 -2.2189759 66.74108889 -2.28125 65.109375 C-2.33732422 63.79839844 -2.33732422 63.79839844 -2.39453125 62.4609375 C-2.46545072 60.63804435 -2.53575293 58.81512708 -2.60546875 56.9921875 C-2.64285156 56.12335938 -2.68023437 55.25453125 -2.71875 54.359375 C-2.74904297 53.57014648 -2.77933594 52.78091797 -2.81054688 51.96777344 C-2.88836814 49.92373209 -2.88836814 49.92373209 -4 48 C-4.09890446 45.45554273 -4.1398367 42.93912728 -4.1328125 40.39453125 C-4.13376923 39.63710129 -4.13472595 38.87967133 -4.13571167 38.09928894 C-4.13639294 36.49286822 -4.13454235 34.88644475 -4.13037109 33.2800293 C-4.12505902 30.83961659 -4.13029858 28.39939106 -4.13671875 25.95898438 C-4.13605723 24.39583293 -4.13477456 22.8326816 -4.1328125 21.26953125 C-4.13584885 20.1847625 -4.13584885 20.1847625 -4.13894653 19.07807922 C-4.11863676 14.608209 -3.72463001 10.3963526 -3 6 C-2.34 6 -1.68 6 -1 6 C-1.33 5.01 -1.66 4.02 -2 3 C-1.34 2.01 -0.68 1.02 0 0 Z " fill="#F29DAC" transform="translate(171,152)"/>
<path d="M0 0 C0 0.66 0 1.32 0 2 C0.66 2.33 1.32 2.66 2 3 C2 3.99 2 4.98 2 6 C2.66 6.33 3.32 6.66 4 7 C4.06972114 14.31091757 4.12292288 21.62176265 4.15543652 28.93294621 C4.1710469 32.32838302 4.19219932 35.72359121 4.22631836 39.11889648 C4.26535614 43.02845459 4.27974753 46.93792232 4.29296875 50.84765625 C4.30845261 52.05833267 4.32393646 53.26900909 4.33988953 54.51637268 C4.3411371 60.79659434 4.06371744 65.46269293 1 71 C1.66 71.33 2.32 71.66 3 72 C2.360625 72.78375 1.72125 73.5675 1.0625 74.375 C-0.98142313 76.79539281 -0.98142313 76.79539281 -2 79 C-2.66 78.67 -3.32 78.34 -4 78 C-3.52908936 77.0320752 -3.05817871 76.06415039 -2.57299805 75.06689453 C-0.72981937 70.74323518 -0.22736062 66.58384888 0.16796875 61.9296875 C0.24734177 61.06366913 0.32671478 60.19765076 0.40849304 59.3053894 C1.17876363 50.16929354 1.33781035 41.04098425 1.31567383 31.87646484 C1.31244512 29.07742638 1.33635081 26.27938284 1.36132812 23.48046875 C1.36359572 21.67708464 1.36430714 19.87369774 1.36328125 18.0703125 C1.372491 17.24532257 1.38170074 16.42033264 1.39118958 15.57034302 C1.35173122 10.65537003 0.75881113 7.23915867 -2 3 C-6.02464978 0.31690015 -9.27292814 0.32348066 -14 1 C-18.20900836 3.69808228 -18.90970306 7.27537991 -20 12 C-20.33 12 -20.66 12 -21 12 C-21.49038597 8.87378943 -21.67045172 6.10798551 -21 3 C-15.16306069 -3.50529114 -7.60285767 -2.96696885 0 0 Z " fill="#F4BA8E" transform="translate(330,217)"/>
<path d="M0 0 C-5.70890164 1.99147732 -10.8064466 3.09850651 -16.8515625 3.28125 C-17.94984375 3.31863281 -19.048125 3.35601562 -20.1796875 3.39453125 C-22.4843677 3.46508268 -24.78905527 3.53539357 -27.09375 3.60546875 C-28.18945312 3.64285156 -29.28515625 3.68023437 -30.4140625 3.71875 C-31.91380615 3.76418945 -31.91380615 3.76418945 -33.44384766 3.81054688 C-36.12033287 3.90386541 -36.12033287 3.90386541 -39 5 C-39.02907584 9.3958194 -39.0468244 13.79161399 -39.0625 18.1875 C-39.07087891 19.43337891 -39.07925781 20.67925781 -39.08789062 21.96289062 C-39.09111328 23.16494141 -39.09433594 24.36699219 -39.09765625 25.60546875 C-39.10289307 26.71043701 -39.10812988 27.81540527 -39.11352539 28.95385742 C-39.08947946 31.97430263 -39.08947946 31.97430263 -38.40429688 34.76416016 C-38 37 -38 37 -39.43359375 39.16796875 C-40.09488281 39.83441406 -40.75617188 40.50085938 -41.4375 41.1875 C-44.22331975 43.66037308 -44.22331975 43.66037308 -45 47 C-45.99 46.67 -46.98 46.34 -48 46 C-47.65066406 45.32453125 -47.30132812 44.6490625 -46.94140625 43.953125 C-46.48636719 43.06109375 -46.03132812 42.1690625 -45.5625 41.25 C-45.11003906 40.36828125 -44.65757812 39.4865625 -44.19140625 38.578125 C-42.0281927 33.89707272 -41.88117906 29.99230884 -41.90234375 24.828125 C-41.90446617 23.8044986 -41.90446617 23.8044986 -41.90663147 22.76019287 C-41.91220916 20.59008316 -41.92475746 18.4200783 -41.9375 16.25 C-41.94251789 14.77474108 -41.94708029 13.29948053 -41.95117188 11.82421875 C-41.96217125 8.21611202 -41.97942047 4.60806625 -42 1 C-41.16863525 1.01047363 -40.33727051 1.02094727 -39.48071289 1.03173828 C-36.35523529 1.0661057 -33.22985498 1.09103659 -30.10424805 1.10986328 C-28.10263623 1.12470245 -26.10111188 1.15013361 -24.09960938 1.17578125 C-16.76357382 1.21273861 -6.72948311 -2.131578 0 0 Z " fill="#F2A1A0" transform="translate(245,264)"/>
<path d="M0 0 C0.66 0.33 1.32 0.66 2 1 C2 1.99 2 2.98 2 4 C2.66 4 3.32 4 4 4 C4.22248246 9.67330267 3.55423809 13.21873184 0.8125 18.125 C-1.84599756 20.87516989 -4.36990232 21.85046907 -8 23 C-11.79721919 22.74256141 -15.34037586 22.02469476 -19 21 C-18.505 19.515 -18.505 19.515 -18 18 C-17.46375 18.33 -16.9275 18.66 -16.375 19 C-13.29659181 20.29617187 -11.32283362 20.39874003 -8 20 C-4.1032634 18.089835 -2.32187199 16.52953134 -0.0625 12.8125 C1.22538214 8.19127585 0.87610151 4.65494899 0 0 Z " fill="#F5B88C" transform="translate(328,179)"/>
<path d="M0 0 C-1.62249941 0.83819158 -3.24808497 1.6704116 -4.875 2.5 C-5.77992188 2.9640625 -6.68484375 3.428125 -7.6171875 3.90625 C-10 5 -10 5 -12 5 C-12.0825 5.70125 -12.165 6.4025 -12.25 7.125 C-13.18630251 10.71415964 -14.70735849 13.10048279 -17 16 C-17.99 16 -18.98 16 -20 16 C-17.2350036 8.16584352 -13.41940792 4.25052403 -6.4375 0.00390625 C-3.7285068 -1.11181691 -2.6811692 -1.04888332 0 0 Z " fill="#F4A4A4" transform="translate(228,188)"/>
<path d="M0 0 C1 3 1 3 -0.1875 6.5 C-1.89229551 9.79201892 -2.81104124 11.25121617 -6 13 C-6.66 13 -7.32 13 -8 13 C-8 13.66 -8 14.32 -8 15 C-10.375 16.6875 -10.375 16.6875 -13 18 C-13.66 17.67 -14.32 17.34 -15 17 C-14.01 16.236875 -13.02 15.47375 -12 14.6875 C-7.08390859 10.51535698 -3.62181749 5.28691281 0 0 Z " fill="#F5AF99" transform="translate(279,235)"/>
<path d="M0 0 C0.763125 0.66 1.52625 1.32 2.3125 2 C6.80443983 4.99462655 11.80891171 4.82047596 17 4 C20.14739769 2.2256306 20.14739769 2.2256306 22 0 C21.43307568 3.28816106 20.6911342 4.98306574 18 7 C15.0390625 7.43359375 15.0390625 7.43359375 11.625 7.4375 C10.50351562 7.45683594 9.38203125 7.47617187 8.2265625 7.49609375 C4.37163421 6.90338686 2.69045466 5.78618245 0 3 C0 2.01 0 1.02 0 0 Z " fill="#F4B58E" transform="translate(304,296)"/>
<path d="M0 0 C0 3 0 3 -2 6 C-2.72070489 10.86894817 -2.81279759 15.44570145 0 19.625 C0.66 20.40875 1.32 21.1925 2 22 C-0.6245228 21.00449135 -1.95028727 20.06036546 -3.75 17.875 C-5.35309561 14.1878801 -5.72027222 10.92318483 -5 7 C-3.50251293 4.34316811 -2.15347249 2.15347249 0 0 Z " fill="#FEEFE0" transform="translate(310,176)"/>
<path d="M0 0 C1.17755859 -0.00773438 1.17755859 -0.00773438 2.37890625 -0.015625 C4.4375 0.25 4.4375 0.25 6.4375 2.25 C5.385625 2.188125 4.33375 2.12625 3.25 2.0625 C-0.76527018 2.2599723 -2.32389751 3.029244 -5.5625 5.25 C-6.2225 5.25 -6.8825 5.25 -7.5625 5.25 C-7.5625 5.91 -7.5625 6.57 -7.5625 7.25 C-8.2225 7.25 -8.8825 7.25 -9.5625 7.25 C-7.73168015 1.89837274 -5.7445369 -0.03785527 0 0 Z " fill="#FEF3E3" transform="translate(320.5625,216.75)"/>
<path d="M0 0 C0 3 0 3 -1 6 C-1.37769531 5.52949219 -1.75539062 5.05898437 -2.14453125 4.57421875 C-4.58554686 2.50320971 -6.54490066 2.29313284 -9.6875 1.8125 C-10.68136719 1.65394531 -11.67523438 1.49539062 -12.69921875 1.33203125 C-13.83810547 1.16767578 -13.83810547 1.16767578 -15 1 C-15 0.67 -15 0.34 -15 0 C-9.96266834 -1.5111995 -5.11828973 -0.64599773 0 0 Z " fill="#F39BA3" transform="translate(191,154)"/>
<path d="M0 0 C0 0.33 0 0.66 0 1 C-1.051875 1.04125 -2.10375 1.0825 -3.1875 1.125 C-8.0144538 2.23282546 -9.16018025 4.0558059 -12 8 C-12.98290968 9.01680311 -13.97334787 10.02738219 -15 11 C-14.80839429 6.88047733 -14.22298348 5.25017659 -11.4375 2.125 C-7.70813425 -0.71512526 -4.54499343 -0.39180978 0 0 Z " fill="#FEE6E9" transform="translate(184,155)"/>
<path d="M0 0 C-7.91183036 5.89508929 -7.91183036 5.89508929 -12 7 C-13.32 6.67 -14.64 6.34 -16 6 C-13.36 5.01 -10.72 4.02 -8 3 C-8 2.34 -8 1.68 -8 1 C-2.25 -1.125 -2.25 -1.125 0 0 Z " fill="#F2A7A3" transform="translate(240,224)"/>
<path d="M0 0 C3.875 0.875 3.875 0.875 5 2 C6.68608966 2.07205511 8.37500659 2.08386068 10.0625 2.0625 C10.98160156 2.05347656 11.90070313 2.04445313 12.84765625 2.03515625 C13.55792969 2.02355469 14.26820313 2.01195312 15 2 C15 1.34 15 0.68 15 0 C15.99 0.33 16.98 0.66 18 1 C16.22101453 3.25817348 15.32343358 3.94518912 12.44140625 4.43359375 C4.59694417 4.44423752 4.59694417 4.44423752 1.3125 2 C0.879375 1.34 0.44625 0.68 0 0 Z " fill="#FEF4E5" transform="translate(306,297)"/>
<path d="M0 0 C0.33 0 0.66 0 1 0 C1.33 5.28 1.66 10.56 2 16 C-1.13868613 9.72262774 -1.13868613 9.72262774 -1.125 6 C-1.12886719 4.948125 -1.12886719 4.948125 -1.1328125 3.875 C-1 2 -1 2 0 0 Z " fill="#F1A5B4" transform="translate(168,190)"/>
<path d="M0 0 C-3.85477249 2.56984833 -7.52040582 3.85814266 -12 5 C-12.33 3.68 -12.66 2.36 -13 1 C-11.20994059 0.63779734 -9.41787943 0.28547531 -7.625 -0.0625 C-6.12839844 -0.35833984 -6.12839844 -0.35833984 -4.6015625 -0.66015625 C-2 -1 -2 -1 0 0 Z " fill="#F19DA5" transform="translate(195,312)"/>
<path d="M0 0 C0.33 0 0.66 0 1 0 C1.35083068 4.91162955 0.37454252 7.72582346 -2 12 C-2.33 12.99 -2.66 13.98 -3 15 C-3.99 14.67 -4.98 14.34 -6 14 C-5.65066406 13.32453125 -5.30132812 12.6490625 -4.94140625 11.953125 C-4.48636719 11.06109375 -4.03132812 10.1690625 -3.5625 9.25 C-3.11003906 8.36828125 -2.65757812 7.4865625 -2.19140625 6.578125 C-1.16544602 4.35801434 -0.48491397 2.38555381 0 0 Z " fill="#F0A3A7" transform="translate(203,296)"/>
<path d="M0 0 C0 0.99 0 1.98 0 3 C-0.68707031 3.06058594 -1.37414062 3.12117187 -2.08203125 3.18359375 C-3.43361328 3.30927734 -3.43361328 3.30927734 -4.8125 3.4375 C-5.70582031 3.51871094 -6.59914063 3.59992188 -7.51953125 3.68359375 C-10.12743559 3.93489767 -10.12743559 3.93489767 -13 5 C-12 2 -12 2 -10.4375 0.8125 C-6.88877617 -0.37040794 -3.73298379 -0.12443279 0 0 Z " fill="#F4B790" transform="translate(322,172)"/>
<path d="M0 0 C0.33 0.99 0.66 1.98 1 3 C-2.14591933 5.80045623 -4.067064 6.35261589 -8.25 6.1875 C-9.14203125 6.16042969 -10.0340625 6.13335937 -10.953125 6.10546875 C-11.96632813 6.05326172 -11.96632813 6.05326172 -13 6 C-13 5.67 -13 5.34 -13 5 C-12.09507812 4.96132813 -12.09507812 4.96132813 -11.171875 4.921875 C-5.89464661 4.59668017 -5.89464661 4.59668017 -1.4375 1.9375 C-0.963125 1.298125 -0.48875 0.65875 0 0 Z " fill="#F6C7A5" transform="translate(325,296)"/>
</svg>
